<svg width="348" height="8" viewBox="0 0 348 8" fill="none" xmlns="http://www.w3.org/2000/svg">
<path d="M0.333345 3.49218C0.329026 4.96493 1.51943 6.16234 2.99218 6.16666C4.46493 6.17097 5.66234 4.98057 5.66666 3.50782C5.67097 2.03507 4.48057 0.837664 3.00782 0.833345C1.53507 0.829026 0.337664 2.01943 0.333345 3.49218ZM342.333 4.49511C342.329 5.96787 343.519 7.16527 344.992 7.16959C346.465 7.17391 347.662 5.98351 347.667 4.51075C347.671 3.038 346.481 1.8406 345.008 1.83628C343.535 1.83196 342.338 3.02236 342.333 4.49511ZM2.99853 4L344.999 5.00293L345.001 4.00293L3.00147 3L2.99853 4Z" fill="#FFD600" fill-opacity="0.39"/>
</svg>
