<svg width="29" height="33" viewBox="0 0 29 33" fill="none" xmlns="http://www.w3.org/2000/svg">
<rect x="0.5" y="0.5" width="28" height="32" stroke="#FFD600" stroke-opacity="0.39"/>
<path fill-rule="evenodd" clip-rule="evenodd" d="M14.5 9.7905C11.4996 9.7905 9.62537 11.2811 8.875 14.2635C10 12.7729 11.3129 12.2137 12.8125 12.5861C13.6686 12.7987 14.2806 13.4164 14.9567 14.0992C16.0604 15.2119 17.3372 16.5 20.125 16.5C23.1254 16.5 24.9996 15.0094 25.75 12.027C24.625 13.5176 23.3132 14.0767 21.8125 13.7044C20.9564 13.4917 20.3444 12.8741 19.6671 12.1912C18.5646 11.0775 17.2889 9.7905 14.5 9.7905ZM8.875 16.5C5.87462 16.5 4.00037 17.9906 3.25 20.973C4.375 19.4812 5.68788 18.9232 7.1875 19.2956C8.04362 19.5082 8.65562 20.1259 9.33288 20.8087C10.4354 21.9214 11.7123 23.2095 14.5011 23.2095C17.5015 23.2095 19.3757 21.7189 20.1261 18.7365C19.0011 20.2271 17.6883 20.7862 16.1886 20.4139C15.3325 20.2012 14.7205 19.5836 14.0444 18.9007C12.9396 17.7881 11.6628 16.5 8.875 16.5Z" fill="black"/>
</svg>
