<svg width="72" height="12" viewBox="0 0 72 12" fill="none" xmlns="http://www.w3.org/2000/svg">
<g clip-path="url(#clip0_12_597)">
<path fill-rule="evenodd" clip-rule="evenodd" d="M0.96221 4.00928C-0.144304 5.10879 -0.144304 6.89121 0.96221 7.99071L4.16729 11.1754C5.2738 12.2747 7.06755 12.2747 8.17385 11.1754L11.3789 7.99071C12.4854 6.89143 12.4854 5.109 11.3789 4.0095L8.17385 0.824571C7.06734 -0.274715 5.27359 -0.274715 4.16729 0.824571L0.96221 4.00928ZM7.57284 7.3935C7.75703 7.21055 7.90314 6.99332 8.00283 6.75422C8.10252 6.51511 8.15383 6.25882 8.15383 6C8.15383 5.74117 8.10252 5.48489 8.00283 5.24578C7.90314 5.00668 7.75703 4.78944 7.57284 4.6065C7.20092 4.23684 6.69652 4.02916 6.17057 4.02916C5.64462 4.02916 5.14022 4.23684 4.76829 4.6065C4.58411 4.78944 4.438 5.00668 4.33831 5.24578C4.23862 5.48489 4.18731 5.74117 4.18731 6C4.18731 6.25882 4.23862 6.51511 4.33831 6.75422C4.438 6.99332 4.58411 7.21055 4.76829 7.3935C5.14027 7.76306 5.64466 7.97066 6.17057 7.97066C6.69648 7.97066 7.20087 7.76306 7.57284 7.3935Z" fill="#2962FF"/>
<path d="M15.0114 10.5741V1.27843H16.8651V5.19557L16.6427 4.90093C16.7992 4.49978 17.0505 4.20514 17.3965 4.01679C17.7507 3.82029 18.1626 3.72214 18.6324 3.72214C19.1433 3.72214 19.588 3.82843 19.9669 4.04143C20.3479 4.24805 20.6611 4.55919 20.8691 4.93778C21.0834 5.3145 21.1903 5.75636 21.1903 6.26421V10.5741H19.3366V6.657C19.3366 6.39493 19.2832 6.16993 19.176 5.98157C19.0789 5.79504 18.9284 5.64123 18.7436 5.5395C18.5623 5.433 18.348 5.37986 18.101 5.37986C17.8619 5.37986 17.6479 5.433 17.4584 5.5395C17.2717 5.64305 17.1177 5.7961 17.0134 5.98157C16.9145 6.16993 16.8651 6.39514 16.8651 6.657V10.5741H15.0114ZM24.2507 10.7216C23.7646 10.7216 23.3445 10.6438 22.9901 10.4882C22.6359 10.3326 22.3641 10.1117 22.1746 9.82521C21.9851 9.53036 21.8902 9.18236 21.8902 8.78143C21.8902 8.40471 21.9767 8.07321 22.1498 7.78671C22.3227 7.49207 22.5863 7.2465 22.9407 7.05C23.3031 6.8535 23.7521 6.71421 24.2876 6.63236L26.3514 6.30086V7.65171L24.6213 7.95857C24.3576 8.00786 24.1559 8.09357 24.0158 8.21657C23.8759 8.33121 23.8058 8.499 23.8058 8.72014C23.8058 8.92457 23.884 9.08443 24.0405 9.19886C24.1971 9.3135 24.3906 9.37071 24.6213 9.37071C24.9261 9.37071 25.1941 9.30536 25.4247 9.17443C25.6554 9.04328 25.8324 8.86736 25.9561 8.64621C26.0875 8.41835 26.1557 8.15992 26.1538 7.89728V6.15343C26.1538 5.89971 26.0507 5.68693 25.8449 5.51486C25.6472 5.343 25.3751 5.25707 25.0291 5.25707C24.6995 5.25707 24.4072 5.34707 24.1518 5.52707C23.9045 5.70728 23.7234 5.94493 23.6079 6.23957L22.125 5.5395C22.2524 5.16987 22.4688 4.83683 22.7553 4.56943C23.0438 4.29943 23.3897 4.0905 23.7933 3.94307C24.1971 3.79586 24.6379 3.72214 25.1156 3.72214C25.684 3.72214 26.1868 3.82436 26.6233 4.029C27.06 4.23386 27.3978 4.52036 27.6367 4.88871C27.8839 5.24871 28.0074 5.67043 28.0074 6.15343V10.5741H26.2773V9.49371L26.6974 9.42C26.4998 9.71464 26.2814 9.96021 26.0425 10.1567C25.8037 10.345 25.5312 10.4866 25.2393 10.5741C24.9427 10.6725 24.6131 10.7216 24.2507 10.7216ZM31.7644 10.7216C31.0228 10.7216 30.3761 10.5497 29.8243 10.2058C29.2804 9.85371 28.9096 9.38293 28.7119 8.79364L30.0713 8.15507C30.2444 8.51529 30.4792 8.79793 30.7758 9.00236C31.065 9.20478 31.4107 9.31215 31.7644 9.30943C32.028 9.30943 32.2298 9.25629 32.3699 9.14979C32.51 9.04329 32.5801 8.89607 32.5801 8.70771C32.5801 8.60936 32.5553 8.52771 32.5059 8.46214C32.4564 8.38843 32.3822 8.32286 32.2835 8.26564C32.1845 8.20843 32.061 8.15914 31.9127 8.11821L30.7633 7.79893C30.2114 7.64336 29.7872 7.39393 29.4906 7.05C29.1939 6.69793 29.0456 6.28457 29.0456 5.80971C29.0456 5.39207 29.1528 5.02778 29.3668 4.71686C29.5811 4.40571 29.8818 4.164 30.269 3.99236C30.6564 3.81236 31.1011 3.72214 31.6038 3.72214C32.2628 3.72214 32.8394 3.87771 33.3339 4.18864C33.8364 4.49164 34.1906 4.9215 34.3967 5.478L33.0248 6.11657C32.9261 5.83821 32.7448 5.61729 32.4811 5.45357C32.2257 5.28171 31.9332 5.19578 31.6038 5.19578C31.3647 5.19578 31.1752 5.24486 31.0353 5.343C30.9034 5.44136 30.8374 5.57636 30.8374 5.74821C30.8374 5.83821 30.8622 5.92029 30.9116 5.99378C30.9612 6.0675 31.0394 6.13307 31.1466 6.19029C31.2619 6.24771 31.4018 6.30086 31.5667 6.34993L32.6417 6.66921C33.202 6.83293 33.6303 7.08278 33.927 7.41836C34.2236 7.74578 34.3719 8.15121 34.3719 8.634C34.3719 9.05143 34.2607 9.41593 34.0382 9.72686C33.8241 10.038 33.5234 10.2836 33.136 10.4638C32.7489 10.6356 32.2917 10.7216 31.7644 10.7216ZM35.2327 10.5741V1.27843H37.0863V5.19557L36.8639 4.90093C37.0204 4.49978 37.2717 4.20514 37.6177 4.01679C37.9719 3.82029 38.3839 3.72214 38.8536 3.72214C39.3643 3.72214 39.8092 3.82843 40.1882 4.04143C40.5691 4.24808 40.8823 4.55922 41.0903 4.93778C41.3046 5.3145 41.4115 5.75636 41.4115 6.26421V10.5741H39.5578V6.657C39.5578 6.39493 39.5044 6.16993 39.3972 5.98157C39.3001 5.79505 39.1497 5.64125 38.9648 5.5395C38.7835 5.433 38.5692 5.37986 38.3222 5.37986C38.0831 5.37986 37.8691 5.433 37.6796 5.5395C37.493 5.64307 37.3389 5.79611 37.2347 5.98157C37.1357 6.16993 37.0863 6.39514 37.0863 6.657V10.5741H35.2327ZM42.3833 10.5741V3.86957H44.1135V5.19578L44.0145 4.90093C44.1712 4.49978 44.4224 4.20514 44.7684 4.01679C45.1228 3.82029 45.5347 3.72214 46.0042 3.72214C46.5151 3.72214 46.9598 3.82843 47.3388 4.04143C47.7198 4.24796 48.033 4.55913 48.241 4.93778C48.4552 5.3145 48.5624 5.75636 48.5624 6.26421V10.5741H46.7087V6.657C46.7087 6.39493 46.655 6.16993 46.5481 5.98157C46.4509 5.79504 46.3004 5.64123 46.1154 5.5395C45.9342 5.433 45.7201 5.37986 45.4728 5.37986C45.234 5.37986 45.0197 5.433 44.8302 5.5395C44.6436 5.64307 44.4896 5.79611 44.3853 5.98157C44.2866 6.16993 44.237 6.39514 44.237 6.657V10.5741H42.3833ZM52.883 10.7216C52.2158 10.7216 51.6062 10.5701 51.0541 10.2673C50.5182 9.97171 50.0672 9.54474 49.7441 9.027C49.4229 8.49493 49.2621 7.89321 49.2621 7.22186C49.2621 6.54236 49.4229 5.94064 49.7441 5.41671C50.0672 4.89897 50.5182 4.47201 51.0541 4.17643C51.6062 3.87364 52.2158 3.72214 52.883 3.72214C53.5504 3.72214 54.1559 3.87364 54.6998 4.17643C55.2435 4.47943 55.6759 4.89278 55.9973 5.41671C56.3269 5.94064 56.4916 6.54236 56.4916 7.22186C56.4916 7.89321 56.3269 8.49471 55.9973 9.027C55.6759 9.55093 55.2435 9.96428 54.6998 10.2673C54.1559 10.5701 53.5504 10.7216 52.883 10.7216ZM52.883 9.06386C53.2208 9.06386 53.5133 8.98607 53.7606 8.8305C54.0158 8.67493 54.2137 8.45807 54.3536 8.17971C54.5019 7.90114 54.5761 7.58186 54.5761 7.22186C54.5761 6.86164 54.5019 6.54643 54.3536 6.27621C54.2137 5.99786 54.0158 5.78121 53.7606 5.62543C53.5133 5.46171 53.2208 5.37986 52.883 5.37986C52.5452 5.37986 52.2488 5.46171 51.9934 5.62543C51.7379 5.781 51.5361 5.99807 51.3878 6.27621C51.2477 6.54643 51.1777 6.86164 51.1777 7.22186C51.1777 7.58186 51.2477 7.90114 51.3878 8.17971C51.5361 8.45807 51.7379 8.67493 51.9934 8.8305C52.2488 8.98607 52.5452 9.06386 52.883 9.06386ZM60.5124 10.7216C59.8534 10.7216 59.2643 10.566 58.7454 10.2549C58.2263 9.94393 57.8144 9.52221 57.5096 8.99014C57.2129 8.45807 57.0646 7.86857 57.0646 7.22186C57.0646 6.567 57.217 5.9775 57.5218 5.45357C57.8267 4.9215 58.2386 4.5 58.7577 4.18864C59.2768 3.87771 59.8575 3.72214 60.5001 3.72214C60.9944 3.72214 61.4312 3.81643 61.8102 4.00457C62.1973 4.18457 62.5021 4.44257 62.7246 4.77814L62.4403 5.14671V1.27821H64.2941V10.5739H62.564V9.34607L62.7369 9.72664C62.5062 10.0541 62.1932 10.3039 61.7976 10.4758C61.4023 10.6395 60.974 10.7216 60.5124 10.7216ZM60.7349 9.06386C61.0727 9.06386 61.3693 8.98607 61.6248 8.8305C61.8802 8.67493 62.0779 8.45807 62.218 8.17971C62.3661 7.90114 62.4403 7.58186 62.4403 7.22186C62.4403 6.86164 62.3661 6.54236 62.218 6.264C62.0779 5.98564 61.8802 5.76878 61.6248 5.61321C61.3693 5.45764 61.0727 5.37986 60.7349 5.37986C60.3971 5.37986 60.0923 5.46171 59.8204 5.62543C59.5568 5.781 59.3509 5.99807 59.2026 6.27621C59.0543 6.54643 58.9802 6.86164 58.9802 7.22186C58.9802 7.58186 59.0543 7.90114 59.2026 8.17971C59.3509 8.45807 59.5568 8.67493 59.8204 8.8305C60.0923 8.98607 60.3971 9.06386 60.7349 9.06386ZM68.6547 10.7216C67.9379 10.7216 67.3158 10.566 66.7885 10.2549C66.2612 9.93557 65.8534 9.51 65.5651 8.97771C65.2767 8.44564 65.1325 7.85636 65.1325 7.20964C65.1325 6.53829 65.2808 5.94064 65.5774 5.41671C65.8822 4.89278 66.2901 4.47943 66.801 4.17643C67.3117 3.87364 67.8883 3.72214 68.5309 3.72214C69.0666 3.72214 69.5402 3.80807 69.9522 3.97993C70.3641 4.14364 70.7101 4.377 70.9902 4.68C71.279 4.98363 71.502 5.34307 71.6453 5.736C71.7936 6.129 71.8677 6.55886 71.8677 7.02536C71.8677 7.15628 71.8593 7.28743 71.8429 7.41836C71.8347 7.54114 71.8141 7.64764 71.7811 7.73764H66.7268V6.38679H70.7308L69.8532 7.02536C69.9358 6.67329 69.9315 6.36236 69.841 6.09214C69.7504 5.81357 69.5896 5.59693 69.3589 5.44136C69.1365 5.27743 68.8605 5.19578 68.5309 5.19578C68.2097 5.19578 67.9336 5.27336 67.7029 5.42893C67.4723 5.5845 67.2994 5.81379 67.1841 6.11679C67.0687 6.41957 67.0233 6.78793 67.048 7.22186C67.0151 7.59836 67.0603 7.93007 67.1841 8.21657C67.3076 8.50307 67.4971 8.72807 67.7525 8.89178C68.0078 9.04736 68.3169 9.12536 68.6793 9.12536C69.0089 9.12536 69.2889 9.05978 69.5195 8.92864C69.7522 8.80392 69.9449 8.61674 70.0757 8.38843L71.5588 9.08828C71.4269 9.41593 71.2167 9.70243 70.9285 9.948C70.6483 10.1936 70.3148 10.386 69.9274 10.5251C69.5402 10.656 69.116 10.7216 68.6547 10.7216Z" fill="#0F172A"/>
</g>
<defs>
<clipPath id="clip0_12_597">
<rect width="72" height="12" fill="white"/>
</clipPath>
</defs>
</svg>
